<?xml version="1.0" encoding="UTF-8"?>
<svg xmlns="http://www.w3.org/2000/svg" width="180" height="59" viewBox="0 0 180 59" fill="none">
  <rect width="180" height="59" fill="white"></rect>
  <g clip-path="url(#clip0_100_1023)">
    <path d="M23.2709 37.6608C20.7203 40.1839 16.4005 40.1738 15.1941 36.8111C14.9579 36.1527 14.7691 35.4758 14.6302 34.7851C14.0631 31.9647 14.3541 29.0415 15.4666 26.3848C16.579 23.7282 18.4628 21.4575 20.8798 19.8599C23.2968 18.2624 26.1385 17.4097 29.0454 17.4097C31.9522 17.4097 34.7939 18.2624 37.2108 19.8599C39.6279 21.4575 41.5117 23.7282 42.6241 26.3848C43.7365 29.0415 44.0275 31.9647 43.4605 34.7851C43.3216 35.4758 43.1327 36.1527 42.8965 36.8111C41.6901 40.1738 37.3704 40.1839 34.8197 37.6608L30.8825 33.766C30.5064 33.3939 30.5452 32.7802 30.649 32.2642C30.712 31.9504 30.6797 31.6252 30.5559 31.3297C30.4321 31.0341 30.2226 30.7815 29.9537 30.6038C29.6848 30.4261 29.3687 30.3312 29.0454 30.3312C28.722 30.3312 28.4059 30.4261 28.137 30.6038C27.868 30.7815 27.6585 31.0341 27.5347 31.3297C27.411 31.6252 27.3786 31.9504 27.4417 32.2642C27.5455 32.7802 27.5843 33.3939 27.2081 33.766L23.2709 37.6608Z" fill="url(#paint0_linear_100_1023)"></path>
  </g>
  <path d="M55.304 40.16C54.712 40.16 54.104 39.976 53.48 39.608C52.872 39.24 52.248 38.64 51.608 37.808C51.112 37.152 50.752 36.4 50.528 35.552C50.32 34.704 50.216 33.864 50.216 33.032C50.216 32.632 50.24 32.24 50.288 31.856C50.352 31.424 50.472 30.936 50.648 30.392C50.824 29.832 51.008 29.376 51.2 29.024C51.264 28.896 51.352 28.768 51.464 28.64C51.592 28.512 51.672 28.448 51.704 28.448C51.72 28.448 51.728 28.464 51.728 28.496C51.728 28.56 51.648 28.752 51.488 29.072C51.248 29.552 51.072 30.064 50.96 30.608C50.848 31.136 50.792 31.68 50.792 32.24C50.792 33.264 50.952 34.272 51.272 35.264C51.608 36.272 52.048 37.136 52.592 37.856C53.104 38.544 53.6 39.04 54.08 39.344C54.576 39.648 55.04 39.8 55.472 39.8C56.112 39.8 56.68 39.552 57.176 39.056C57.688 38.56 58.112 37.952 58.448 37.232C58.688 36.736 58.888 36.08 59.048 35.264C59.208 34.464 59.328 33.568 59.408 32.576C59.504 31.568 59.552 30.528 59.552 29.456C59.552 28.368 59.504 27.296 59.408 26.24C59.312 25.184 59.152 24.192 58.928 23.264C58.72 22.336 58.456 21.536 58.136 20.864C57.816 20.192 57.424 19.712 56.96 19.424C56.832 19.344 56.712 19.304 56.6 19.304C56.472 19.304 56.344 19.344 56.216 19.424C56.104 19.504 56 19.608 55.904 19.736C55.696 20.024 55.544 20.424 55.448 20.936C55.352 21.432 55.304 21.968 55.304 22.544C55.304 23.216 55.36 23.896 55.472 24.584C55.584 25.256 55.736 25.856 55.928 26.384C56.136 26.896 56.368 27.256 56.624 27.464C56.768 27.592 56.904 27.656 57.032 27.656C57.144 27.656 57.232 27.632 57.296 27.584C57.36 27.52 57.424 27.488 57.488 27.488C57.6 27.488 57.616 27.536 57.536 27.632C57.456 27.712 57.336 27.792 57.176 27.872C57.016 27.952 56.84 27.984 56.648 27.968C56.216 27.92 55.856 27.68 55.568 27.248C55.28 26.816 55.064 26.272 54.92 25.616C54.776 24.944 54.704 24.256 54.704 23.552C54.704 22.8 54.776 22.08 54.92 21.392C55.08 20.704 55.312 20.144 55.616 19.712C55.936 19.28 56.32 19.064 56.768 19.064C56.992 19.064 57.208 19.112 57.416 19.208C58.024 19.464 58.52 19.96 58.904 20.696C59.304 21.416 59.608 22.28 59.816 23.288C60.04 24.28 60.192 25.32 60.272 26.408C60.368 27.496 60.416 28.544 60.416 29.552C60.416 30.368 60.392 31.112 60.344 31.784C60.312 32.456 60.272 33 60.224 33.416C60.128 34.296 59.936 35.136 59.648 35.936C59.36 36.752 59 37.472 58.568 38.096C58.136 38.736 57.64 39.24 57.08 39.608C56.52 39.976 55.928 40.16 55.304 40.16ZM60.5356 38.48C60.3756 38.48 60.2476 38.432 60.1516 38.336C60.0396 38.24 60.0236 38.128 60.1036 38C60.3276 37.664 60.5436 37.184 60.7516 36.56C60.9436 35.952 61.1116 35.312 61.2556 34.64C61.4156 33.968 61.5436 33.36 61.6396 32.816C61.7516 32.256 61.8316 31.864 61.8796 31.64C61.5916 31.368 61.4476 31.064 61.4476 30.728C61.4476 30.472 61.5036 30.256 61.6156 30.08C61.7436 29.904 61.8396 29.824 61.9036 29.84C61.9356 29.84 61.9756 29.856 62.0236 29.888C62.0876 29.904 62.1196 29.928 62.1196 29.96C62.2156 29.208 62.2956 28.464 62.3596 27.728C62.4236 26.976 62.4556 26.288 62.4556 25.664C62.4556 25.152 62.4316 24.696 62.3836 24.296C62.3356 23.896 62.2636 23.576 62.1676 23.336C62.0716 23.096 62.0236 22.912 62.0236 22.784C62.0236 22.608 62.0716 22.52 62.1676 22.52C62.2796 22.52 62.3676 22.592 62.4316 22.736C62.6076 23.088 62.7356 23.64 62.8156 24.392C62.9116 25.144 62.9596 26 62.9596 26.96C62.9596 27.616 62.9436 28.312 62.9116 29.048C62.8796 29.768 62.8236 30.488 62.7436 31.208C63.0316 30.952 63.3276 30.704 63.6316 30.464C63.9356 30.208 64.1996 29.944 64.4236 29.672V29.648C64.4236 29.616 64.4076 29.584 64.3756 29.552C64.3596 29.52 64.3516 29.472 64.3516 29.408C64.3516 29.296 64.4316 29.16 64.5916 29C64.7516 28.84 64.9596 28.616 65.2156 28.328C65.4876 28.024 65.7676 27.752 66.0556 27.512C66.3436 27.256 66.6076 27.136 66.8476 27.152C67.0396 27.152 67.1356 27.216 67.1356 27.344C67.1356 27.488 66.9996 27.704 66.7276 27.992C66.4556 28.28 66.1276 28.584 65.7436 28.904C65.3756 29.224 65.0316 29.52 64.7116 29.792C64.4076 30.048 64.2076 30.224 64.1116 30.32L63.1996 31.328L62.7196 31.832C62.9276 32.36 63.1676 32.88 63.4396 33.392C63.7116 33.904 64.0156 34.328 64.3516 34.664C64.7036 35 65.0636 35.168 65.4316 35.168C65.8156 35.168 66.2076 34.936 66.6076 34.472C66.8796 34.136 67.1116 33.76 67.3036 33.344C67.4956 32.928 67.6556 32.616 67.7836 32.408C67.8636 32.248 67.9436 32.144 68.0236 32.096C68.1036 32.032 68.1676 32 68.2156 32C68.3276 32 68.3676 32.08 68.3356 32.24C68.2716 32.448 68.1596 32.712 67.9996 33.032C67.8396 33.352 67.6796 33.656 67.5196 33.944C67.3756 34.216 67.2636 34.408 67.1836 34.52C66.8796 34.968 66.5756 35.296 66.2716 35.504C65.9676 35.712 65.6716 35.816 65.3836 35.816C65.0156 35.816 64.6556 35.68 64.3036 35.408C63.9516 35.136 63.6236 34.784 63.3196 34.352C63.0316 33.92 62.7676 33.464 62.5276 32.984C62.3516 34.2 62.1356 35.288 61.8796 36.248C61.6236 37.224 61.3436 37.896 61.0396 38.264C60.8956 38.408 60.7276 38.48 60.5356 38.48ZM74.1269 36.128C73.7429 36.128 73.4549 35.96 73.2629 35.624C73.0709 35.304 72.9749 34.896 72.9749 34.4C72.9749 34.048 73.0469 33.608 73.1909 33.08C73.3349 32.552 73.5349 32 73.7909 31.424C74.0469 30.848 74.3349 30.312 74.6549 29.816C74.9749 29.304 75.3029 28.896 75.6389 28.592C75.9909 28.272 76.3349 28.112 76.6709 28.112C76.9429 28.112 77.1349 28.216 77.2469 28.424C77.3749 28.616 77.4389 28.824 77.4389 29.048C77.4389 29.24 77.3989 29.416 77.3189 29.576C77.2549 29.72 77.1589 29.792 77.0309 29.792C76.9029 29.792 76.8069 29.736 76.7429 29.624C76.6949 29.496 76.6469 29.368 76.5989 29.24C76.5669 29.112 76.4789 29.048 76.3349 29.048C76.0469 29.048 75.7589 29.232 75.4709 29.6C75.1829 29.968 74.9189 30.432 74.6789 30.992C74.4389 31.552 74.2469 32.136 74.1029 32.744C73.9589 33.336 73.8869 33.864 73.8869 34.328C73.8869 34.664 73.9269 34.928 74.0069 35.12C74.1029 35.328 74.2549 35.432 74.4629 35.432C74.7349 35.432 75.0069 35.264 75.2789 34.928C75.5669 34.576 75.8469 34.128 76.1189 33.584C76.3909 33.024 76.6389 32.44 76.8629 31.832C77.1029 31.224 77.3029 30.656 77.4629 30.128C77.6389 29.584 77.7749 29.152 77.8709 28.832C77.9989 27.712 78.1509 26.584 78.3269 25.448C78.5189 24.312 78.7989 23.208 79.1669 22.136C79.2149 21.96 79.2869 21.808 79.3829 21.68C79.4949 21.552 79.6069 21.488 79.7189 21.488C79.8469 21.488 79.9509 21.576 80.0309 21.752C80.1269 21.928 80.1749 22.128 80.1749 22.352C80.1749 22.528 80.1429 22.712 80.0789 22.904C80.0149 23.096 79.9349 23.352 79.8389 23.672C79.7269 24.056 79.5829 24.568 79.4069 25.208C79.2469 25.832 79.0789 26.544 78.9029 27.344C78.7269 28.128 78.5749 28.968 78.4469 29.864C78.3349 30.744 78.2789 31.624 78.2789 32.504C78.2789 33.176 78.3269 33.648 78.4229 33.92C78.5189 34.192 78.6469 34.328 78.8069 34.328C78.9829 34.328 79.1749 34.216 79.3829 33.992C79.6069 33.768 79.8229 33.496 80.0309 33.176C80.2549 32.856 80.4549 32.536 80.6309 32.216C80.8069 31.88 80.9429 31.616 81.0389 31.424C81.2149 31.072 81.3509 30.896 81.4469 30.896C81.5109 30.896 81.5429 30.968 81.5429 31.112C81.5429 31.224 81.5189 31.344 81.4709 31.472C81.3749 31.68 81.3109 31.84 81.2789 31.952C81.2469 32.048 81.2069 32.144 81.1589 32.24C81.1269 32.336 81.0469 32.488 80.9189 32.696C80.8069 32.888 80.6309 33.152 80.3909 33.488C80.1509 33.808 79.8789 34.104 79.5749 34.376C79.2709 34.632 78.9669 34.76 78.6629 34.76C78.3589 34.76 78.1269 34.632 77.9669 34.376C77.8229 34.12 77.7269 33.792 77.6789 33.392C77.6469 32.976 77.6309 32.552 77.6309 32.12C77.6309 31.592 77.6549 31.032 77.7029 30.44C77.5909 30.824 77.4389 31.28 77.2469 31.808C77.0549 32.32 76.8389 32.84 76.5989 33.368C76.3589 33.896 76.1029 34.376 75.8309 34.808C75.6069 35.16 75.3589 35.464 75.0869 35.72C74.8149 35.992 74.4949 36.128 74.1269 36.128ZM82.6663 35.312C82.0903 35.312 81.5863 34.976 81.1543 34.304C80.7383 33.616 80.5303 32.536 80.5303 31.064C80.5303 30.104 80.6503 29.336 80.8903 28.76C81.1303 28.168 81.4263 27.736 81.7783 27.464C82.1303 27.192 82.4663 27.056 82.7863 27.056C83.1063 27.056 83.3783 27.168 83.6023 27.392C83.8263 27.6 83.9383 27.904 83.9383 28.304C83.9383 28.688 83.8263 29.096 83.6023 29.528C83.3783 29.944 83.1063 30.328 82.7863 30.68C82.4823 31.016 82.1783 31.24 81.8743 31.352C81.8103 31.384 81.7303 31.4 81.6343 31.4C81.5703 31.4 81.5383 31.376 81.5383 31.328C81.5383 31.2 81.6663 31.056 81.9223 30.896C82.2423 30.672 82.5463 30.336 82.8343 29.888C83.1223 29.424 83.2663 29.016 83.2663 28.664C83.2663 28.456 83.2183 28.296 83.1223 28.184C83.0263 28.056 82.9143 27.992 82.7863 27.992C82.5463 27.992 82.2823 28.184 81.9943 28.568C81.7223 28.936 81.5223 29.576 81.3943 30.488C81.3623 30.744 81.3303 30.992 81.2983 31.232C81.2823 31.456 81.2743 31.68 81.2743 31.904C81.2743 32.8 81.4103 33.504 81.6823 34.016C81.9543 34.512 82.3143 34.76 82.7623 34.76C83.1463 34.76 83.5783 34.536 84.0583 34.088C84.5383 33.624 85.0103 32.904 85.4743 31.928C85.5863 31.672 85.7143 31.544 85.8583 31.544C85.9543 31.544 86.0023 31.608 86.0023 31.736C86.0023 31.848 85.9703 31.968 85.9062 32.096C85.4903 33.12 84.9863 33.912 84.3943 34.472C83.8023 35.032 83.2263 35.312 82.6663 35.312ZM87.3761 36.608C87.2801 36.608 87.1841 36.552 87.0881 36.44C87.0081 36.328 86.9521 36.152 86.9201 35.912C86.9041 35.848 86.8961 35.752 86.8961 35.624C86.8961 35.512 86.8961 35.376 86.8961 35.216C86.8961 34.896 86.8961 34.576 86.8961 34.256C86.9121 33.92 86.9201 33.696 86.9201 33.584C86.9201 32.912 86.8881 32.232 86.8241 31.544C86.7601 30.856 86.6321 30.28 86.4401 29.816C86.2481 29.352 85.9441 29.12 85.5281 29.12C85.2721 29.12 85.0321 29.216 84.8081 29.408C84.6001 29.584 84.4241 29.768 84.2801 29.96C84.1201 30.152 84.0081 30.248 83.9441 30.248C83.8801 30.248 83.8481 30.216 83.8481 30.152C83.8481 30.072 83.9201 29.944 84.0641 29.768C84.2081 29.576 84.3121 29.448 84.3761 29.384C84.6161 29.144 84.8801 28.928 85.1681 28.736C85.4721 28.544 85.7521 28.448 86.0081 28.448C86.4081 28.448 86.7201 28.672 86.9441 29.12C87.1681 29.552 87.3281 30.104 87.4241 30.776C87.5201 31.432 87.5681 32.096 87.5681 32.768C87.5681 33.104 87.5601 33.432 87.5441 33.752C87.5281 34.056 87.5041 34.336 87.4721 34.592C87.6161 34.192 87.8001 33.72 88.0241 33.176C88.2481 32.616 88.5041 32.048 88.7921 31.472C89.0961 30.88 89.4161 30.328 89.7521 29.816C90.0881 29.304 90.4481 28.88 90.8321 28.544C91.0561 28.352 91.2241 28.256 91.3361 28.256C91.4321 28.256 91.4801 28.304 91.4801 28.4C91.4801 28.56 91.3441 28.76 91.0721 29C90.5121 29.496 90.0401 30.064 89.6561 30.704C89.2721 31.344 88.9601 32 88.7201 32.672C88.4961 33.344 88.3281 33.976 88.2161 34.568C88.1041 35.16 88.0321 35.648 88.0001 36.032C87.9841 36.144 87.9121 36.264 87.7841 36.392C87.6561 36.536 87.5201 36.608 87.3761 36.608ZM92.8381 35.312C92.2621 35.312 91.7581 34.976 91.3261 34.304C90.9101 33.616 90.7021 32.536 90.7021 31.064C90.7021 30.104 90.8221 29.336 91.0621 28.76C91.3021 28.168 91.5981 27.736 91.9501 27.464C92.3021 27.192 92.6381 27.056 92.9581 27.056C93.2781 27.056 93.5501 27.168 93.7741 27.392C93.9981 27.6 94.1101 27.904 94.1101 28.304C94.1101 28.688 93.9981 29.096 93.7741 29.528C93.5501 29.944 93.2781 30.328 92.9581 30.68C92.6541 31.016 92.3501 31.24 92.0461 31.352C91.9821 31.384 91.9021 31.4 91.8061 31.4C91.7421 31.4 91.7101 31.376 91.7101 31.328C91.7101 31.2 91.8381 31.056 92.0941 30.896C92.4141 30.672 92.7181 30.336 93.0061 29.888C93.2941 29.424 93.4381 29.016 93.4381 28.664C93.4381 28.456 93.3901 28.296 93.2941 28.184C93.1981 28.056 93.0861 27.992 92.9581 27.992C92.7181 27.992 92.4541 28.184 92.1661 28.568C91.8941 28.936 91.6941 29.576 91.5661 30.488C91.5341 30.744 91.5021 30.992 91.4701 31.232C91.4541 31.456 91.4461 31.68 91.4461 31.904C91.4461 32.8 91.5821 33.504 91.8541 34.016C92.1261 34.512 92.4861 34.76 92.9341 34.76C93.3181 34.76 93.7501 34.536 94.2301 34.088C94.7101 33.624 95.1821 32.904 95.6461 31.928C95.7581 31.672 95.8861 31.544 96.0301 31.544C96.1261 31.544 96.1741 31.608 96.1741 31.736C96.1741 31.848 96.1421 31.968 96.0781 32.096C95.6621 33.12 95.1581 33.912 94.5661 34.472C93.9741 35.032 93.3981 35.312 92.8381 35.312ZM99.1319 38.816C98.9239 38.816 98.7239 38.736 98.5319 38.576C98.3559 38.416 98.2039 38.256 98.0759 38.096C97.5639 37.504 97.1319 36.72 96.7799 35.744C96.4439 34.768 96.1879 33.696 96.0119 32.528C95.8359 31.344 95.7479 30.144 95.7479 28.928C95.7479 27.792 95.8199 26.688 95.9639 25.616C96.1239 24.544 96.3639 23.568 96.6839 22.688C97.0039 21.808 97.4039 21.104 97.8839 20.576C98.5079 19.872 99.1079 19.52 99.6839 19.52C100.036 19.52 100.316 19.68 100.524 20C100.748 20.304 100.86 20.792 100.86 21.464C100.86 22.104 100.732 22.92 100.476 23.912C100.236 24.888 99.8199 26.056 99.2279 27.416C99.0199 27.864 98.7959 28.312 98.5559 28.76C98.3319 29.208 98.0919 29.68 97.8359 30.176C97.7399 30.368 97.6599 30.464 97.5959 30.464C97.5639 30.464 97.5479 30.432 97.5479 30.368C97.5479 30.24 97.6039 30.072 97.7159 29.864C99.1719 27.128 99.8999 24.408 99.8999 21.704C99.8999 20.632 99.6759 20.096 99.2279 20.096C98.9079 20.096 98.5319 20.408 98.0999 21.032C97.5079 21.912 97.0999 22.96 96.8759 24.176C96.6519 25.376 96.5399 26.592 96.5399 27.824C96.5399 28.752 96.5799 29.656 96.6599 30.536C96.7399 31.4 96.8359 32.184 96.9479 32.888C96.9959 33.192 97.0679 33.6 97.1639 34.112C97.2599 34.624 97.3879 35.16 97.5479 35.72C97.7079 36.296 97.8839 36.816 98.0759 37.28C98.2839 37.76 98.5079 38.104 98.7479 38.312C98.8119 38.36 98.8759 38.408 98.9399 38.456C99.0199 38.52 99.1079 38.56 99.2039 38.576C99.3479 38.576 99.4199 38.616 99.4199 38.696C99.4199 38.776 99.3239 38.816 99.1319 38.816ZM101.867 35.84C101.339 35.84 100.907 35.68 100.571 35.36C100.251 35.04 100.011 34.632 99.8512 34.136C99.6912 33.624 99.6112 33.088 99.6112 32.528C99.6112 32.192 99.6432 31.872 99.7072 31.568C99.7712 31.264 99.8352 31.016 99.8992 30.824C99.8832 30.712 99.8672 30.6 99.8512 30.488C99.8512 30.36 99.8512 30.232 99.8512 30.104C99.8512 29.64 99.8992 29.136 99.9952 28.592C100.091 28.048 100.243 27.528 100.451 27.032C100.675 26.536 100.947 26.136 101.267 25.832C101.603 25.512 102.011 25.352 102.491 25.352C102.907 25.352 103.315 25.528 103.715 25.88C104.115 26.216 104.467 26.712 104.771 27.368C104.947 27.736 105.067 28.136 105.131 28.568C105.211 28.984 105.251 29.408 105.251 29.84C105.251 30.432 105.187 31.024 105.059 31.616C104.947 32.192 104.779 32.736 104.555 33.248C104.395 33.616 104.179 34.008 103.907 34.424C103.651 34.824 103.355 35.16 103.019 35.432C102.683 35.704 102.299 35.84 101.867 35.84ZM101.987 35.312C102.531 35.312 103.035 34.936 103.499 34.184C103.835 33.656 104.075 33.056 104.219 32.384C104.363 31.696 104.435 31.008 104.435 30.32C104.435 29.808 104.403 29.312 104.339 28.832C104.275 28.352 104.179 27.888 104.051 27.44C103.939 27.04 103.747 26.688 103.475 26.384C103.219 26.064 102.851 25.928 102.371 25.976C101.987 26.008 101.651 26.2 101.363 26.552C101.075 26.904 100.851 27.304 100.691 27.752C100.547 28.184 100.475 28.56 100.475 28.88C100.475 29.056 100.499 29.192 100.547 29.288C100.595 29.16 100.715 28.952 100.907 28.664C101.099 28.36 101.315 28.088 101.555 27.848C101.795 27.592 102.019 27.464 102.227 27.464C102.403 27.464 102.491 27.536 102.491 27.68C102.283 27.696 102.075 27.824 101.867 28.064C101.675 28.288 101.491 28.56 101.315 28.88C101.155 29.2 101.019 29.52 100.907 29.84C100.811 30.144 100.739 30.384 100.691 30.56C100.675 30.624 100.651 30.704 100.619 30.8C100.587 30.896 100.571 30.992 100.571 31.088C100.571 31.2 100.635 31.384 100.763 31.64C100.891 31.88 101.099 32.104 101.387 32.312C101.675 32.52 102.067 32.624 102.563 32.624C102.707 32.624 102.859 32.608 103.019 32.576C103.179 32.544 103.331 32.512 103.475 32.48L103.643 32.432C103.675 32.432 103.691 32.448 103.691 32.48C103.691 32.528 103.635 32.592 103.523 32.672C103.427 32.736 103.339 32.784 103.259 32.816C103.035 32.928 102.787 32.984 102.515 32.984C102.115 32.984 101.731 32.864 101.363 32.624C101.011 32.368 100.699 32.08 100.427 31.76C100.411 31.888 100.403 32.016 100.403 32.144C100.403 32.256 100.403 32.368 100.403 32.48C100.403 33.408 100.563 34.112 100.883 34.592C101.203 35.072 101.571 35.312 101.987 35.312ZM106.078 42.824C105.838 42.824 105.646 42.664 105.502 42.344C105.358 42.04 105.254 41.672 105.19 41.24C105.11 40.808 105.07 40.408 105.07 40.04C105.07 39.864 105.078 39.608 105.094 39.272C105.11 38.936 105.134 38.576 105.166 38.192C105.198 37.808 105.23 37.448 105.262 37.112C105.294 36.776 105.318 36.52 105.334 36.344C105.478 35.256 105.694 34.208 105.982 33.2C106.27 32.176 106.582 31.176 106.918 30.2C106.934 30.168 106.95 30.12 106.966 30.056C106.998 29.992 107.022 29.96 107.038 29.96V29.888C106.878 29.952 106.67 30.104 106.414 30.344C106.174 30.584 105.998 30.768 105.886 30.896C105.774 31.008 105.67 31.128 105.574 31.256C105.478 31.368 105.366 31.424 105.238 31.424C105.11 31.424 105.046 31.352 105.046 31.208C105.046 31.032 105.142 30.856 105.334 30.68C105.51 30.488 105.71 30.312 105.934 30.152C106.158 29.976 106.398 29.816 106.654 29.672C106.926 29.528 107.118 29.424 107.23 29.36C107.278 29.328 107.31 29.288 107.326 29.24C107.358 29.192 107.382 29.144 107.398 29.096C107.51 28.92 107.622 28.752 107.734 28.592C107.862 28.432 108.03 28.32 108.238 28.256C108.382 28.272 108.542 28.304 108.718 28.352C108.894 28.4 108.998 28.512 109.03 28.688C109.03 28.752 109.046 28.784 109.078 28.784V28.808C109.158 28.808 109.254 28.8 109.366 28.784C109.494 28.752 109.638 28.736 109.798 28.736C110.422 28.736 110.926 28.896 111.31 29.216C111.694 29.536 111.886 29.96 111.886 30.488C111.886 30.984 111.742 31.52 111.454 32.096C111.166 32.656 110.854 33.112 110.518 33.464C109.99 33.992 109.43 34.456 108.838 34.856C108.262 35.24 107.766 35.432 107.35 35.432C107.094 35.432 106.918 35.36 106.822 35.216C106.742 35.088 106.702 34.928 106.702 34.736C106.702 34.464 106.822 34.192 107.062 33.92C107.302 33.648 107.542 33.416 107.782 33.224C108.054 33 108.334 32.792 108.622 32.6C108.926 32.408 109.182 32.248 109.39 32.12C109.502 32.04 109.606 31.968 109.702 31.904C109.814 31.84 109.91 31.808 109.99 31.808C110.038 31.808 110.062 31.832 110.062 31.88C110.062 31.912 109.966 31.992 109.774 32.12C109.598 32.248 109.446 32.36 109.318 32.456C109.222 32.536 109.054 32.68 108.814 32.888C108.574 33.08 108.318 33.304 108.046 33.56C107.79 33.8 107.566 34.048 107.374 34.304C107.182 34.56 107.086 34.784 107.086 34.976C107.342 34.976 107.622 34.872 107.926 34.664C108.246 34.44 108.558 34.184 108.862 33.896C109.182 33.608 109.454 33.368 109.678 33.176C109.886 32.984 110.134 32.72 110.422 32.384C110.71 32.048 110.966 31.688 111.19 31.304C111.414 30.92 111.526 30.568 111.526 30.248C111.526 29.832 111.366 29.528 111.046 29.336C110.742 29.128 110.374 29.024 109.942 29.024C109.798 29.024 109.614 29.04 109.39 29.072C109.166 29.104 109.03 29.136 108.982 29.168C108.63 29.712 108.294 30.264 107.974 30.824C107.654 31.384 107.358 31.96 107.086 32.552C106.638 33.512 106.278 34.488 106.006 35.48C105.75 36.472 105.582 37.544 105.502 38.696C105.486 38.968 105.462 39.256 105.43 39.56C105.414 39.864 105.414 40.168 105.43 40.472C105.446 40.632 105.478 40.888 105.526 41.24C105.574 41.592 105.654 41.912 105.766 42.2C105.878 42.488 106.03 42.632 106.222 42.632C106.238 42.632 106.27 42.632 106.318 42.632C106.366 42.632 106.39 42.64 106.39 42.656V42.728C106.278 42.792 106.174 42.824 106.078 42.824ZM114.213 35.312C113.637 35.312 113.133 34.976 112.701 34.304C112.285 33.616 112.077 32.536 112.077 31.064C112.077 30.104 112.197 29.336 112.437 28.76C112.677 28.168 112.973 27.736 113.325 27.464C113.677 27.192 114.013 27.056 114.333 27.056C114.653 27.056 114.925 27.168 115.149 27.392C115.373 27.6 115.485 27.904 115.485 28.304C115.485 28.688 115.373 29.096 115.149 29.528C114.925 29.944 114.653 30.328 114.333 30.68C114.029 31.016 113.725 31.24 113.421 31.352C113.357 31.384 113.277 31.4 113.181 31.4C113.117 31.4 113.085 31.376 113.085 31.328C113.085 31.2 113.213 31.056 113.469 30.896C113.789 30.672 114.093 30.336 114.381 29.888C114.669 29.424 114.813 29.016 114.813 28.664C114.813 28.456 114.765 28.296 114.669 28.184C114.573 28.056 114.461 27.992 114.333 27.992C114.093 27.992 113.829 28.184 113.541 28.568C113.269 28.936 113.069 29.576 112.941 30.488C112.909 30.744 112.877 30.992 112.845 31.232C112.829 31.456 112.821 31.68 112.821 31.904C112.821 32.8 112.957 33.504 113.229 34.016C113.501 34.512 113.861 34.76 114.309 34.76C114.693 34.76 115.125 34.536 115.605 34.088C116.085 33.624 116.557 32.904 117.021 31.928C117.133 31.672 117.261 31.544 117.405 31.544C117.501 31.544 117.549 31.608 117.549 31.736C117.549 31.848 117.517 31.968 117.453 32.096C117.037 33.12 116.533 33.912 115.941 34.472C115.349 35.032 114.773 35.312 114.213 35.312ZM120.027 36.2C119.515 36.2 119.123 35.96 118.851 35.48C118.579 35.016 118.443 34.504 118.443 33.944C118.443 33.416 118.531 32.864 118.707 32.288C118.883 31.712 119.099 31.144 119.355 30.584C119.627 30.024 119.907 29.512 120.195 29.048C119.907 29.16 119.635 29.216 119.379 29.216C119.251 29.216 119.139 29.2 119.043 29.168C118.947 29.136 118.867 29.112 118.803 29.096C118.723 29.288 118.579 29.608 118.371 30.056C118.179 30.504 117.971 30.976 117.747 31.472C117.539 31.952 117.355 32.36 117.195 32.696C116.939 33.24 116.715 33.512 116.523 33.512C116.427 33.512 116.379 33.448 116.379 33.32C116.379 33.224 116.419 33.096 116.499 32.936C116.867 32.248 117.211 31.568 117.531 30.896C117.867 30.224 118.171 29.576 118.443 28.952C118.411 28.872 118.379 28.768 118.347 28.64C118.315 28.496 118.299 28.344 118.299 28.184C118.299 28.008 118.315 27.824 118.347 27.632C118.395 27.424 118.459 27.224 118.539 27.032C118.587 26.92 118.675 26.76 118.803 26.552C118.931 26.328 119.075 26.128 119.235 25.952C119.395 25.76 119.547 25.664 119.691 25.664C119.963 25.664 120.099 25.808 120.099 26.096C120.099 26.368 120.011 26.68 119.835 27.032C119.675 27.384 119.507 27.712 119.331 28.016C119.155 28.304 119.067 28.52 119.067 28.664C119.067 28.792 119.131 28.856 119.259 28.856C119.435 28.856 119.651 28.768 119.907 28.592C120.179 28.4 120.395 28.224 120.555 28.064C120.635 27.984 120.763 27.864 120.939 27.704C121.115 27.528 121.283 27.44 121.443 27.44C121.603 27.44 121.707 27.488 121.755 27.584C121.819 27.68 121.851 27.792 121.851 27.92C121.851 28.064 121.787 28.248 121.659 28.472C121.531 28.68 121.379 28.888 121.203 29.096C121.043 29.304 120.907 29.48 120.795 29.624C120.571 29.96 120.315 30.384 120.027 30.896C119.739 31.408 119.491 31.96 119.283 32.552C119.075 33.128 118.971 33.68 118.971 34.208C118.971 34.56 119.059 34.928 119.235 35.312C119.411 35.696 119.651 35.888 119.955 35.888C120.227 35.888 120.515 35.744 120.819 35.456C121.139 35.168 121.435 34.824 121.707 34.424C121.995 34.024 122.243 33.64 122.451 33.272C122.675 32.904 122.827 32.648 122.907 32.504C122.939 32.424 122.995 32.328 123.075 32.216C123.155 32.088 123.251 32.024 123.363 32.024C123.459 32.024 123.507 32.072 123.507 32.168C123.507 32.248 123.483 32.344 123.435 32.456C123.403 32.552 123.371 32.64 123.339 32.72C123.195 33.056 123.019 33.408 122.811 33.776C122.603 34.144 122.459 34.392 122.379 34.52C122.155 34.888 121.819 35.256 121.371 35.624C120.939 36.008 120.491 36.2 120.027 36.2ZM125.111 36.032C124.903 36.032 124.751 35.96 124.655 35.816C124.575 35.688 124.535 35.56 124.535 35.432C124.535 35.176 124.647 34.912 124.871 34.64C124.951 34.544 125.063 34.416 125.207 34.256C125.351 34.08 125.455 33.944 125.519 33.848C125.311 33.56 125.031 33.296 124.679 33.056C124.327 32.816 123.983 32.512 123.647 32.144C123.343 31.808 123.087 31.4 122.879 30.92C122.671 30.424 122.567 29.952 122.567 29.504C122.567 28.976 122.687 28.472 122.927 27.992C123.167 27.512 123.463 27.096 123.815 26.744C124.199 26.36 124.623 26.056 125.087 25.832C125.551 25.592 126.031 25.472 126.527 25.472C126.863 25.472 127.191 25.552 127.511 25.712C127.831 25.872 127.991 26.136 127.991 26.504C127.991 26.936 127.895 27.152 127.703 27.152C127.623 27.152 127.567 27.072 127.535 26.912C127.519 26.832 127.511 26.752 127.511 26.672C127.511 26.576 127.511 26.512 127.511 26.48C127.511 26.32 127.439 26.184 127.295 26.072C127.151 25.944 126.991 25.88 126.815 25.88C126.447 25.88 126.039 26.024 125.591 26.312C125.143 26.6 124.767 26.936 124.463 27.32C124.159 27.72 123.911 28.176 123.719 28.688C123.527 29.184 123.431 29.664 123.431 30.128C123.431 30.704 123.559 31.2 123.815 31.616C124.071 32.032 124.375 32.4 124.727 32.72C125.095 33.04 125.423 33.352 125.711 33.656C125.855 33.48 126.007 33.312 126.167 33.152C126.343 32.992 126.503 32.864 126.647 32.768C126.775 32.688 126.863 32.648 126.911 32.648C126.959 32.648 126.983 32.672 126.983 32.72C126.983 32.8 126.911 32.896 126.767 33.008C126.735 33.04 126.639 33.136 126.479 33.296C126.335 33.44 126.159 33.624 125.951 33.848C126.079 33.992 126.183 34.144 126.263 34.304C126.343 34.464 126.383 34.64 126.383 34.832C126.383 35.088 126.239 35.352 125.951 35.624C125.663 35.896 125.383 36.032 125.111 36.032ZM125.375 35.384C125.487 35.384 125.591 35.28 125.687 35.072C125.799 34.88 125.855 34.688 125.855 34.496C125.855 34.4 125.839 34.312 125.807 34.232C125.775 34.152 125.751 34.104 125.735 34.088C125.607 34.248 125.487 34.424 125.375 34.616C125.279 34.792 125.231 34.952 125.231 35.096C125.231 35.288 125.279 35.384 125.375 35.384Z" fill="black"></path>
  <defs>
    <linearGradient id="paint0_linear_100_1023" x1="42.405" y1="24.6792" x2="16.3169" y2="24.6792" gradientUnits="userSpaceOnUse">
      <stop stop-color="#161490"></stop>
      <stop offset="0.510417" stop-color="#7476ED"></stop>
      <stop offset="1" stop-color="#E56F8C"></stop>
    </linearGradient>
    <clipPath id="clip0_100_1023">
      <rect width="132.391" height="24.5027" fill="white" transform="translate(14.3478 17.4097)"></rect>
    </clipPath>
  </defs>
</svg>
