<?xml version="1.0" encoding="UTF-8"?>
<svg xmlns="http://www.w3.org/2000/svg" width="78" height="78" viewBox="0 0 78 78" fill="none">
  <circle cx="39" cy="39" r="24" fill="white"></circle>
  <circle cx="39" cy="39" r="39" fill="white" fill-opacity="0.43"></circle>
  <g clip-path="url(#clip0_4_2181)">
    <path d="M35.2051 29.6754C34.9475 29.6627 34.6913 29.7183 34.4621 29.8362H34.0154L34.2339 29.9818C34.0913 30.0924 33.9699 30.2289 33.8762 30.3847C33.7395 30.6121 33.6671 30.8723 33.6666 31.1376V31.1385V46.8613V46.8623C33.6671 47.1275 33.7395 47.3877 33.8762 47.6151L34.3047 47.3575L33.8762 47.6151C34.0128 47.8425 34.2086 48.0285 34.4426 48.1534C34.6767 48.2784 34.9402 48.3375 35.2051 48.3245L35.1806 47.8251L35.2051 48.3245C35.4701 48.3114 35.7266 48.2268 35.9473 48.0796L47.7377 40.2209C47.9389 40.087 48.1038 39.9055 48.218 39.6925C48.3321 39.4795 48.3918 39.2416 48.3918 38.9999C48.3918 38.7583 48.3321 38.5203 48.218 38.3073C48.1038 38.0943 47.9389 37.9128 47.7377 37.7789L37.3193 30.8362H37.3201L35.9473 29.9202C35.7266 29.773 35.4701 29.6884 35.2051 29.6754ZM38.9999 62.6666C25.9288 62.6666 15.3333 52.071 15.3333 38.9999C15.3333 25.9288 25.9288 15.3333 38.9999 15.3333C52.071 15.3333 62.6666 25.9288 62.6666 38.9999C62.6666 52.071 52.071 62.6666 38.9999 62.6666Z" fill="#57007B" stroke="white"></path>
  </g>
  <defs>
    <clipPath id="clip0_4_2181">
      <rect width="58" height="58" fill="white" transform="translate(10 10)"></rect>
    </clipPath>
  </defs>
</svg>
